# xmcd CD database file
#
# Track frame offsets:
#	150
#	22543
#	44565
#	65893
#	84083
#	102495
#	126058
#	149778
#	174848
#	194735
#	215700
#	237495
#
# Disc length: 3526 seconds
#
# Revision: 2
# Processed by: cddbd v1.5PL3 Copyright (c) Steve Scherf et al.
# Submitted via: CDex 1.50
#
DISCID=b20dc40c
DTITLE=尾崎豊 - BLUE 〜A TRIBUTE TO YUTAKA OZAKI
DYEAR=2004
DGENRE=Japanese Pop
TTITLE0=ダンスホール - Cocco
TTITLE1=僕が僕であるために - Mr.Children
TTITLE2=路上のルール - 橘いずみ
TTITLE3=十七歳の地図 - 175R
TTITLE4=I LOVE YOU - 宇多田ヒカル
TTITLE5=太陽の破片 - 岡村靖幸
TTITLE6=LOVE WAY - 大森洋平
TTITLE7=街路樹 - 山口晶
TTITLE8=OH MY LITTLE GIRL - 竹内めぐみ
TTITLE9=闇の告白 - 斉藤和義
TTITLE10=Forget-me-not - 槇原敬之
TTITLE11=15の夜 - Crouching Boys
EXTD=YEAR: 2004
EXTT0=
EXTT1=
EXTT2=
EXTT3=
EXTT4=
EXTT5=
EXTT6=
EXTT7=
EXTT8=
EXTT9=
EXTT10=
EXTT11=
PLAYORDER=
